<svg width="1176" height="1788" viewBox="0 0 1176 1788" fill="none" xmlns="http://www.w3.org/2000/svg" xmlns:xlink="http://www.w3.org/1999/xlink">
<path d="M1101,126.125C1101,126.954 1100.671,127.749 1100.085,128.335C1099.499,128.921 1098.704,129.25 1097.875,129.25L1029.125,129.25C1028.296,129.25 1027.501,128.921 1026.915,128.335C1026.329,127.749 1026,126.954 1026,126.125C1026,125.296 1026.329,124.501 1026.915,123.915C1027.501,123.329 1028.296,123 1029.125,123L1097.875,123C1098.704,123 1099.499,123.329 1100.085,123.915C1100.671,124.501 1101,125.296 1101,126.125ZM1029.125,104.25L1097.875,104.25C1098.704,104.25 1099.499,103.921 1100.085,103.335C1100.671,102.749 1101,101.954 1101,101.125C1101,100.296 1100.671,99.501 1100.085,98.915C1099.499,98.329 1098.704,98 1097.875,98L1029.125,98C1028.296,98 1027.501,98.329 1026.915,98.915C1026.329,99.501 1026,100.296 1026,101.125C1026,101.954 1026.329,102.749 1026.915,103.335C1027.501,103.921 1028.296,104.25 1029.125,104.25ZM1097.875,148L1029.125,148C1028.296,148 1027.501,148.329 1026.915,148.915C1026.329,149.501 1026,150.296 1026,151.125C1026,151.954 1026.329,152.749 1026.915,153.335C1027.501,153.921 1028.296,154.25 1029.125,154.25L1097.875,154.25C1098.704,154.25 1099.499,153.921 1100.085,153.335C1100.671,152.749 1101,151.954 1101,151.125C1101,150.296 1100.671,149.501 1100.085,148.915C1099.499,148.329 1098.704,148 1097.875,148Z" fill="#57FFDC"/>
<path d="M1175.152,894.066C1175.152,1387.456 911.878,1787.428 587.112,1787.428C262.346,1787.428 -0.93,1387.456 -0.93,894.066C-0.93,400.676 262.346,0.704 587.112,0.704C911.878,0.704 1175.152,400.676 1175.152,894.066Z" transform="rotate(-0.137 587.112 894.067)" fill="url(#pattern_0_3_24)"/>
</svg>
