<svg width="76" height="58" viewBox="0 0 76 58" fill="none" xmlns="http://www.w3.org/2000/svg" xmlns:xlink="http://www.w3.org/1999/xlink">
<path d="M75,28.125C75,28.954 74.671,29.749 74.085,30.335C73.499,30.921 72.704,31.25 71.875,31.25L3.125,31.25C2.296,31.25 1.501,30.921 0.915,30.335C0.329,29.749 0,28.954 0,28.125C0,27.296 0.329,26.501 0.915,25.915C1.501,25.329 2.296,25 3.125,25L71.875,25C72.704,25 73.499,25.329 74.085,25.915C74.671,26.501 75,27.296 75,28.125ZM3.125,6.25L71.875,6.25C72.704,6.25 73.499,5.921 74.085,5.335C74.671,4.749 75,3.954 75,3.125C75,2.296 74.671,1.501 74.085,0.915C73.499,0.329 72.704,0 71.875,0L3.125,0C2.296,0 1.501,0.329 0.915,0.915C0.329,1.501 0,2.296 0,3.125C0,3.954 0.329,4.749 0.915,5.335C1.501,5.921 2.296,6.25 3.125,6.25ZM71.875,50L3.125,50C2.296,50 1.501,50.329 0.915,50.915C0.329,51.501 0,52.296 0,53.125C0,53.954 0.329,54.749 0.915,55.335C1.501,55.921 2.296,56.25 3.125,56.25L71.875,56.25C72.704,56.25 73.499,55.921 74.085,55.335C74.671,54.749 75,53.954 75,53.125C75,52.296 74.671,51.501 74.085,50.915C73.499,50.329 72.704,50 71.875,50Z" fill="#57FFDC"/>
</svg>
